<svg width="29" height="30" viewBox="0 0 30 30" fill="none" xmlns="http://www.w3.org/2000/svg">
<g clip-path="url(#clip0_33_2)">
<path d="M16.5 32.5L15 28H4.5C3.675 28 2.96875 27.7063 2.38125 27.1188C1.79375 26.5312 1.5 25.825 1.5 25V5.5C1.5 4.675 1.79375 3.96875 2.38125 3.38125C2.96875 2.79375 3.675 2.5 4.5 2.5H13.5L14.8125 7H28.5C29.375 7 30.0938 7.28125 30.6563 7.84375C31.2188 8.40625 31.5 9.125 31.5 10V29.5C31.5 30.325 31.2188 31.0313 30.6563 31.6188C30.0938 32.2063 29.375 32.5 28.5 32.5H16.5ZM9.225 21.4C10.95 21.4 12.3688 20.8438 13.4813 19.7313C14.5938 18.6188 15.15 17.175 15.15 15.4C15.15 15.2 15.1438 15.0188 15.1313 14.8563C15.1188 14.6938 15.0875 14.525 15.0375 14.35H9.1125V16.675H12.45C12.25 17.375 11.8688 17.9188 11.3063 18.3063C10.7438 18.6938 10.0625 18.8875 9.2625 18.8875C8.2875 18.8875 7.45 18.5375 6.75 17.8375C6.05 17.1375 5.7 16.275 5.7 15.25C5.7 14.225 6.05 13.3625 6.75 12.6625C7.45 11.9625 8.2875 11.6125 9.2625 11.6125C9.7125 11.6125 10.1375 11.6938 10.5375 11.8563C10.9375 12.0188 11.3 12.2625 11.625 12.5875L13.4625 10.825C12.9375 10.275 12.3063 9.85 11.5688 9.55C10.8313 9.25 10.05 9.1 9.225 9.1C7.55 9.1 6.11875 9.69375 4.93125 10.8813C3.74375 12.0688 3.15 13.525 3.15 15.25C3.15 16.975 3.74375 18.4313 4.93125 19.6188C6.11875 20.8063 7.55 21.4 9.225 21.4ZM19.275 22.15L20.1 21.3625C19.75 20.9375 19.4313 20.525 19.1438 20.125C18.8563 19.725 18.575 19.3 18.3 18.85L19.275 22.15ZM21.15 20.2375C21.85 19.4125 22.3813 18.625 22.7438 17.875C23.1063 17.125 23.35 16.5375 23.475 16.1125H17.5125L17.9625 17.6875H19.4625C19.6625 18.0625 19.9 18.4688 20.175 18.9062C20.45 19.3438 20.775 19.7875 21.15 20.2375ZM18 31H28.5C28.95 31 29.3125 30.8563 29.5875 30.5688C29.8625 30.2813 30 29.925 30 29.5V10C30 9.55 29.8625 9.1875 29.5875 8.9125C29.3125 8.6375 28.95 8.5 28.5 8.5H15.2625L17.025 14.575H19.9875V13H21.525V14.575H27V16.1125H25.0875C24.8375 17.0625 24.4625 17.9875 23.9625 18.8875C23.4625 19.7875 22.875 20.625 22.2 21.4L26.2875 25.4125L25.2 26.5L21.15 22.45L19.8 23.8375L21 28L18 31Z" fill="#CA44D6"/>
</g>
<defs>
<clipPath id="clip0_33_2">
<rect width="30" height="30" fill="white"/>
</clipPath>
</defs>
</svg>
