<svg width="29" height="30" viewBox="0 0 29 30" fill="none" xmlns="http://www.w3.org/2000/svg">
<mask id="mask0_29_7" style="mask-type:alpha" maskUnits="userSpaceOnUse" x="0" y="0" width="29" height="30">
<rect width="28.3706" height="30" fill="#141414"/>
</mask>
<g mask="url(#mask0_29_7)">
<path d="M14.1855 25C13.2398 24.2083 12.2153 23.5938 11.112 23.1562C10.0087 22.7188 8.86603 22.5 7.68392 22.5C6.85644 22.5 6.04374 22.6146 5.24582 22.8438C4.44789 23.0729 3.68445 23.3958 2.95548 23.8125C2.54174 24.0417 2.14278 24.0312 1.75859 23.7812C1.3744 23.5312 1.18231 23.1667 1.18231 22.6875V7.625C1.18231 7.39583 1.23649 7.17708 1.34485 6.96875C1.45321 6.76042 1.61575 6.60417 1.83247 6.5C2.73876 6 3.68445 5.625 4.66954 5.375C5.65463 5.125 6.65942 5 7.68392 5C8.82662 5 9.9447 5.15625 11.0382 5.46875C12.1316 5.78125 13.1807 6.25 14.1855 6.875V22C15.1903 21.3333 16.2444 20.8333 17.3477 20.5C18.451 20.1667 19.5641 20 20.6871 20C21.3964 20 22.0909 20.0625 22.7706 20.1875C23.4503 20.3125 24.135 20.5 24.8245 20.75V5.75C25.12 5.85417 25.4106 5.96354 25.6963 6.07812C25.982 6.19271 26.2628 6.33333 26.5386 6.5C26.7553 6.60417 26.9178 6.76042 27.0262 6.96875C27.1346 7.17708 27.1887 7.39583 27.1887 7.625V22.6875C27.1887 23.1667 26.9966 23.5312 26.6125 23.7812C26.2283 24.0312 25.8293 24.0417 25.4156 23.8125C24.6866 23.3958 23.9232 23.0729 23.1252 22.8438C22.3273 22.6146 21.5146 22.5 20.6871 22.5C19.505 22.5 18.3623 22.7188 17.259 23.1562C16.1557 23.5938 15.1312 24.2083 14.1855 25ZM16.5497 18.75V6.875L22.4603 0.625V13.125L16.5497 18.75ZM11.8213 20.7812V8.40625C11.1711 8.11458 10.4964 7.89062 9.79694 7.73438C9.09752 7.57812 8.39318 7.5 7.68392 7.5C6.95495 7.5 6.24568 7.57292 5.55612 7.71875C4.86656 7.86458 4.19669 8.08333 3.54653 8.375V20.7812C4.2361 20.5104 4.92074 20.3125 5.60045 20.1875C6.28016 20.0625 6.97465 20 7.68392 20C8.39318 20 9.08767 20.0625 9.76739 20.1875C10.4471 20.3125 11.1317 20.5104 11.8213 20.7812Z" fill="#CA44D6"/>
</g>
</svg>
