<svg width="158" height="38" viewBox="0 0 158 38" fill="none" xmlns="http://www.w3.org/2000/svg">
<path d="M14.624 9.26402L16.424 13.26L5.048 18.012L16.424 22.62L14.624 26.76L0.223999 20.532V15.528L14.624 9.26402Z" fill="#A31EAF"/>
<path d="M28.792 0.624023L33.76 1.74002L25.3 34.032L20.296 32.88L28.792 0.624023Z" fill="#A31EAF"/>
<path d="M39.3951 9.26402L53.7951 15.528V20.532L39.3951 26.76L37.5951 22.62L48.9711 18.012L37.5951 13.26L39.3951 9.26402Z" fill="#A31EAF"/>
<path d="M70.5191 30L69.2231 24.636H61.9511L60.6911 30H54.5711L62.0951 5.05202H69.2591L76.7831 30H70.5191ZM62.9591 20.352H68.2151L65.5871 9.33603L62.9591 20.352Z" fill="#A31EAF"/>
<path d="M89.7014 10.272C91.3574 10.272 92.6534 10.776 93.5894 11.784C94.5254 12.792 94.9934 14.208 94.9934 16.032V30H89.3054V17.004C89.3054 16.044 89.1494 15.384 88.8374 15.024C88.5494 14.64 88.1054 14.448 87.5054 14.448C86.3534 14.448 85.2494 15.276 84.1934 16.932V30H78.5054V10.884H83.4734L83.8694 13.152C84.6854 12.192 85.5614 11.472 86.4974 10.992C87.4574 10.512 88.5254 10.272 89.7014 10.272Z" fill="#A31EAF"/>
<path d="M114.475 24.456C114.475 25.176 114.571 25.704 114.763 26.04C114.979 26.376 115.315 26.628 115.771 26.796L114.583 30.504C113.407 30.408 112.447 30.156 111.703 29.748C110.959 29.316 110.383 28.644 109.975 27.732C108.727 29.652 106.807 30.612 104.215 30.612C102.319 30.612 100.807 30.06 99.6788 28.956C98.5508 27.852 97.9868 26.412 97.9868 24.636C97.9868 22.548 98.7548 20.952 100.291 19.848C101.827 18.744 104.047 18.192 106.951 18.192H108.895V17.364C108.895 16.236 108.655 15.468 108.175 15.06C107.695 14.628 106.855 14.412 105.655 14.412C105.031 14.412 104.275 14.508 103.387 14.7C102.499 14.868 101.587 15.108 100.651 15.42L99.3548 11.676C100.555 11.22 101.779 10.872 103.027 10.632C104.299 10.392 105.475 10.272 106.555 10.272C109.291 10.272 111.295 10.836 112.567 11.964C113.839 13.092 114.475 14.784 114.475 17.04V24.456ZM105.871 26.544C107.167 26.544 108.175 25.932 108.895 24.708V21.324H107.491C106.195 21.324 105.223 21.552 104.575 22.008C103.951 22.464 103.639 23.172 103.639 24.132C103.639 24.9 103.831 25.5 104.215 25.932C104.623 26.34 105.175 26.544 105.871 26.544Z" fill="#A31EAF"/>
<path d="M136.141 3.28802V30H131.101L130.813 27.768C129.469 29.664 127.657 30.612 125.377 30.612C123.001 30.612 121.189 29.7 119.941 27.876C118.717 26.052 118.105 23.556 118.105 20.388C118.105 18.444 118.429 16.704 119.077 15.168C119.725 13.632 120.637 12.432 121.813 11.568C123.013 10.704 124.381 10.272 125.917 10.272C127.741 10.272 129.253 10.872 130.453 12.072V2.67602L136.141 3.28802ZM127.141 26.436C128.461 26.436 129.565 25.716 130.453 24.276V16.032C129.997 15.48 129.529 15.072 129.049 14.808C128.593 14.544 128.065 14.412 127.465 14.412C126.409 14.412 125.569 14.904 124.945 15.888C124.321 16.872 124.009 18.384 124.009 20.424C124.009 22.656 124.273 24.216 124.801 25.104C125.353 25.992 126.133 26.436 127.141 26.436Z" fill="#A31EAF"/>
<path d="M151.139 30.036C150.371 32.508 149.111 34.404 147.359 35.724C145.631 37.068 143.303 37.824 140.375 37.992L139.763 33.996C141.587 33.756 142.931 33.348 143.795 32.772C144.683 32.196 145.391 31.272 145.919 30H143.975L138.143 10.884H144.191L147.611 26.364L151.355 10.884H157.223L151.139 30.036Z" fill="#A31EAF"/>
</svg>
