<svg width="30" height="30" viewBox="0 0 50 50" fill="none" xmlns="http://www.w3.org/2000/svg">
<path d="M15.4167 48.0833L21.25 42.0833C19.1667 41.6667 17.25 40.8333 15.5 39.6667L15.4167 48.0833ZM34.5833 1.91667L28.75 7.91667C30.8333 8.33333 32.75 9.16667 34.5 10.3333L34.5833 1.91667ZM7.91667 28.75L1.91667 34.5833L10.3333 34.5C9.16667 32.75 8.33333 30.8333 7.91667 28.75ZM42.0833 21.25L48.0833 15.4167L39.6667 15.5C40.8333 17.25 41.6667 19.1667 42.0833 21.25ZM10.3333 15.5L1.91667 15.4167L7.91667 21.25C8.33333 19.1667 9.16667 17.25 10.3333 15.5ZM39.6667 34.5L48.0833 34.5833L42.0833 28.75C41.6667 30.8333 40.8333 32.75 39.6667 34.5ZM21.25 7.91667L15.4167 1.91667L15.5 10.3333C17.25 9.16667 19.1667 8.33333 21.25 7.91667ZM28.75 42.0833L34.5833 48.0833L34.5 39.6667C32.75 40.8333 30.8333 41.6667 28.75 42.0833ZM10.6667 35L7.33333 42.75L15.0833 39.4167C13.3333 38.1667 11.8333 36.6667 10.6667 35ZM39.3333 15L42.6667 7.25L34.9167 10.5833C36.6667 11.8333 38.1667 13.3333 39.3333 15ZM7.5 25C7.5 23.9167 7.58333 22.9167 7.83333 21.9167L0 25L7.83333 28.0833C7.58333 27.0833 7.5 26.0833 7.5 25ZM50 25L42.1667 21.9167C42.3333 22.9167 42.5 24 42.5 25C42.5 26.0833 42.4167 27.0833 42.1667 28.0833L50 25ZM15 10.6667L7.25 7.33333L10.5833 15.0833C11.8333 13.3333 13.3333 11.8333 15 10.6667ZM35 39.3333L42.75 42.6667L39.4167 34.9167C38.1667 36.6667 36.6667 38.1667 35 39.3333ZM28.0833 7.83333L25 0L21.9167 7.83333C22.9167 7.66667 24 7.5 25 7.5C26.0833 7.5 27.0833 7.58333 28.0833 7.83333ZM21.9167 42.1667L25 50L28.0833 42.1667C27.0833 42.4167 26.0833 42.5 25 42.5C23.9167 42.5 22.9167 42.4167 21.9167 42.1667Z" fill="#FFCA28"/>
<path d="M25 9.1665C16.25 9.1665 9.16667 16.2498 9.16667 24.9998C9.16667 33.7498 16.25 40.8332 25 40.8332C33.75 40.8332 40.8333 33.7498 40.8333 24.9998C40.8333 16.2498 33.75 9.1665 25 9.1665Z" fill="#FFCA28"/>
<path d="M32.25 30.1665C30.9167 32.3332 28.3333 34.1665 25 34.1665C21.6667 34.1665 19 32.2499 17.75 30.1665C17.4167 29.5832 17.8333 28.9999 18.4167 29.3332C22.6667 32.3332 27.4167 32.3332 31.6667 29.3332C32.1667 28.9999 32.5833 29.6665 32.25 30.1665Z" fill="#EF4D3C"/>
<path d="M27.0083 18.9834C25.8083 19.5834 24.0583 19.5834 22.9083 18.9834C21.6583 18.3334 20.1083 17.8834 18.2583 17.7334C16.4583 17.5834 12.6583 17.5834 10.7583 18.2834C10.5583 18.3834 10.3083 18.4834 10.1083 18.5834C10.0083 18.6334 9.95831 18.6334 9.95831 18.8834V19.1834C9.95831 19.7334 9.90831 19.5334 10.2583 19.7334C11.0083 20.1834 11.4583 21.3334 11.6583 22.9334C11.9583 25.2334 13.1083 26.6834 14.9083 27.3834C16.5583 28.0334 18.4583 27.9834 20.1083 27.3334C21.0083 26.9834 21.8083 26.3834 22.4583 25.4334C23.5583 23.7834 23.2583 22.7334 23.8083 21.2834C24.3083 20.0334 25.7083 20.0334 26.2083 21.2834C26.7583 22.7334 26.4583 23.7334 27.5583 25.4334C28.2083 26.3834 29.0083 26.9834 29.9083 27.3334C31.5583 28.0334 33.4083 28.0334 35.1083 27.3834C36.9083 26.6834 38.0083 25.2334 38.3583 22.9334C38.5583 21.3334 39.0083 20.1834 39.7583 19.7334C40.1583 19.4834 40.0583 19.7334 40.0583 19.1834V18.8834C40.0583 18.6834 40.0583 18.6334 39.9083 18.5334C39.7083 18.4334 39.5083 18.3334 39.2583 18.2334C37.3583 17.5334 33.5583 17.5334 31.7583 17.6834C29.8083 17.8834 28.2583 18.3334 27.0083 18.9834Z" fill="#363B3D"/>
<path d="M22.0583 19.8833C21.6583 19.5833 20.8583 19.3333 19.9583 19.1833C19.4583 19.0833 18.8583 19.0333 18.2583 18.9833C16.9083 18.8833 15.4583 18.8833 14.5083 19.0833C13.9083 19.1833 13.4583 19.3333 13.3083 19.5333C12.6083 20.3333 12.7583 22.5833 13.4583 24.1833C13.6583 24.5833 13.9083 24.9833 14.1583 25.2833C14.6083 25.7833 15.2083 26.0833 15.9083 26.2833C16.3583 26.4333 16.8083 26.4833 17.3083 26.5333C18.1083 26.5833 18.9083 26.4833 19.6583 26.2833C19.8083 26.2333 19.9083 26.1833 20.0083 26.1333C22.1583 25.1833 22.7083 21.5833 22.3583 20.2833C22.3083 20.1333 22.2083 19.9833 22.0583 19.8833ZM36.8083 19.5833C36.7583 19.5333 36.7583 19.4833 36.7083 19.4333C36.4083 19.0333 34.9583 18.8833 33.3583 18.8833C32.7583 18.8833 32.1583 18.9333 31.5583 18.9833C30.9083 19.0333 30.2583 19.1333 29.7083 19.2333C28.6083 19.4833 27.8083 19.8333 27.7083 20.2833C27.5083 21.0833 27.6083 22.6833 28.2083 24.0833C28.4583 24.6333 28.7583 25.1833 29.2083 25.5833C29.5583 25.9333 29.9583 26.1833 30.4583 26.2833C30.5583 26.2833 30.6083 26.3333 30.7083 26.3333C32.2083 26.6833 33.9583 26.5833 35.2083 25.8333C35.4583 25.6833 35.7083 25.4833 35.9583 25.2833C37.1083 23.9833 37.5583 20.7833 36.8083 19.5833Z" fill="#5F6566"/>
</svg>
