<svg width="30" height="30" viewBox="0 0 30 30" fill="none" xmlns="http://www.w3.org/2000/svg">
<path d="M7.05087 23.5465C6.80084 23.4948 6.60082 23.443 6.35079 23.3396C6.10076 23.2361 5.90073 23.1843 5.70071 23.0809C5.25065 22.8739 4.8506 22.6152 4.45055 22.3047C3.65045 21.7356 3.00037 20.9595 2.50031 20.0281C2.00025 19.1485 1.70021 18.1137 1.6502 17.1306C1.6002 16.6132 1.6502 16.1476 1.70021 15.6302C1.75022 15.3715 1.80022 15.1645 1.85023 14.9058C1.90024 14.6471 2.00025 14.4401 2.05025 14.1814L2.10026 14.9058C2.10026 15.1645 2.15027 15.3715 2.20027 15.6302C2.25028 16.0958 2.35029 16.5615 2.4503 16.9754C2.65033 17.855 2.95037 18.6829 3.40042 19.459C3.85048 20.2351 4.35054 20.9595 5.00062 21.6321C5.30066 21.9426 5.6507 22.253 6.00074 22.5634C6.15076 22.7187 6.35079 22.8739 6.55081 23.0291L7.05087 23.5465ZM6.90085 25.4092C6.75084 25.5127 6.55081 25.5644 6.35079 25.6162C6.15076 25.6679 6.00074 25.7196 5.80072 25.7196C5.45068 25.7714 5.05063 25.8231 4.65058 25.7714C3.90048 25.7196 3.10038 25.5127 2.4503 25.1505C1.75022 24.7883 1.15014 24.2192 0.750093 23.5465C0.550068 23.2361 0.350043 22.8739 0.200025 22.5117C0.150019 22.3565 0.100012 22.1495 0.0500061 21.9426C0.0500061 21.7873 0 21.6321 0 21.4251C0.150019 21.5804 0.250031 21.7356 0.350043 21.8391C0.500062 21.9943 0.600074 22.1495 0.700087 22.253C0.950118 22.5117 1.15014 22.7704 1.40017 22.9774C1.90024 23.443 2.4003 23.857 3.00037 24.1674C3.55044 24.4779 4.20052 24.7366 4.80059 24.9435C5.10063 25.047 5.45068 25.0987 5.80072 25.2022C5.95074 25.254 6.15076 25.254 6.30078 25.3057C6.55081 25.3575 6.70083 25.3575 6.90085 25.4092ZM18.2023 0.263116C18.4523 0.314857 18.6523 0.418339 18.9023 0.52182C19.1524 0.625302 19.3524 0.728784 19.5524 0.832266C20.0025 1.09097 20.4025 1.34967 20.8026 1.66012C21.6027 2.28101 22.2528 3.10887 22.7028 4.0402C23.1529 4.97154 23.4029 6.00636 23.4029 6.98943C23.4029 7.50684 23.3529 7.97251 23.2529 8.48992C23.2029 8.74862 23.1529 8.95559 23.0529 9.21429C22.9528 9.47299 22.9028 9.67996 22.8028 9.88692L22.7528 9.16255C22.7528 8.90385 22.7528 8.69688 22.7028 8.43818L22.5528 7.04117C22.4028 6.16158 22.1027 5.28198 21.7027 4.45413C21.3026 3.62627 20.8026 2.9019 20.2025 2.22927C19.9025 1.86708 19.5524 1.55664 19.2524 1.19445C19.1024 1.03923 18.9023 0.884007 18.7023 0.728784L18.2023 0.263116ZM22.5528 0.0561523C22.7528 0.107893 22.9028 0.159634 23.0529 0.263116C23.2029 0.314857 23.4029 0.418339 23.5529 0.52182C23.853 0.728784 24.153 0.935748 24.453 1.19445C25.0031 1.71186 25.4532 2.33275 25.7032 3.05712C26.0032 3.7815 26.1032 4.55761 26.0032 5.33372C25.9532 5.69591 25.8532 6.0581 25.7532 6.42028C25.7032 6.5755 25.6032 6.78247 25.5532 6.93769C25.4532 7.09291 25.4031 7.24814 25.2531 7.40336V6.88595V6.36854C25.2531 6.00636 25.2031 5.69591 25.2031 5.38546C25.1031 4.71283 25.0031 4.09194 24.7531 3.52279C24.503 2.9019 24.203 2.38449 23.853 1.81534C23.6529 1.55664 23.4529 1.24619 23.2529 0.987489C23.1529 0.832266 23.0529 0.728784 22.9028 0.573561C22.8028 0.314857 22.6528 0.159634 22.5528 0.0561523Z" fill="#42ADE2"/>
<path d="M4.0005 7.76521C3.00038 8.23088 2.65033 9.47266 3.10039 10.5075L9.40117 24.1153L12.9016 22.4079L6.60082 8.74829C6.15077 7.71347 5.00062 7.24781 4.0005 7.76521ZM20.5525 18.5791L24.253 16.7681L17.0521 1.24586C16.5521 0.211043 15.3519 -0.254625 14.3018 0.262784C13.3017 0.780193 12.8516 2.02197 13.3517 3.10853L20.5525 18.5791Z" fill="#FFDD67"/>
<path d="M14.3518 0.211373C14.2518 0.263114 14.1518 0.314855 14.0518 0.418337C15.0019 0.159632 16.002 0.625301 16.4521 1.55664L23.6529 17.0789L24.303 16.7685L17.1021 1.24619C16.6021 0.159633 15.4019 -0.306036 14.3518 0.211373Z" fill="#EBA352"/>
<path d="M12.9016 22.356L16.7521 20.4416L9.4012 4.60887C8.90114 3.52231 7.60098 3.0049 6.55085 3.52231C5.50072 4.03972 5.05066 5.38498 5.55072 6.47154L12.9016 22.356Z" fill="#FFDD67"/>
<path d="M6.55077 3.57454C6.45076 3.62628 6.35074 3.67802 6.25073 3.7815C7.20085 3.5228 8.30099 3.98847 8.75104 4.97155L13.3016 14.8541L14.4017 15.5267L9.40112 4.6611C8.90106 3.5228 7.65091 3.05713 6.55077 3.57454Z" fill="#EBA352"/>
<path d="M16.152 19.2004L20.0025 17.286L12.6516 1.45327C12.1515 0.366716 10.8513 -0.150693 9.80121 0.418457C8.75108 0.935866 8.30103 2.28113 8.80109 3.36769L16.152 19.2004Z" fill="#FFDD67"/>
<path d="M9.8012 0.367021C9.70118 0.418762 9.60117 0.522244 9.50116 0.573985C10.4513 0.31528 11.5514 0.780949 12.0015 1.76403L17.1521 12.9401L18.2522 13.6127L12.6515 1.45358C12.1515 0.315281 10.8513 -0.150388 9.8012 0.367021ZM4.00048 7.76597C3.90046 7.81771 3.80045 7.86945 3.70044 7.97293C4.60055 7.71423 5.55067 8.1799 5.95072 9.11123L9.70118 17.2346L10.8013 17.9072L6.6008 8.80079C6.15074 7.71423 5.0006 7.24856 4.00048 7.76597Z" fill="#EBA352"/>
<path d="M29.4036 6.21313C28.0534 5.12657 25.8532 6.31661 24.753 10.042C24.0029 12.629 23.9029 13.4051 22.3027 14.1812L21.4026 12.2668C21.4026 12.2668 7.20086 19.3553 7.75093 20.4936C7.75093 20.4936 9.45114 25.9782 12.3515 28.5135C16.652 32.3423 26.7033 28.2548 27.1533 18.3722C27.4034 12.629 30.8538 7.40317 29.4036 6.21313Z" fill="#FFDD67"/>
<path d="M29.4036 6.21375C29.1536 6.00679 28.8535 5.9033 28.5535 5.85156C28.6035 5.9033 28.7035 5.9033 28.7535 5.95504C30.2537 7.14508 28.7035 9.88735 27.8534 12.3709C27.1533 14.3371 26.5533 16.355 26.6533 18.3211C27.0533 26.9101 18.7023 30.9976 13.7017 29.4454C18.6023 31.5668 27.7034 27.531 27.3033 18.5798C27.2033 16.6137 27.7534 14.6993 28.5035 12.6296C29.3036 10.1461 30.8538 7.40379 29.4036 6.21375Z" fill="#EBA352"/>
<path d="M22.7528 13.9746C19.6524 14.3368 15.1019 18.9417 18.3023 23.9606C15.952 18.89 19.8025 15.4751 22.2528 14.2851C22.5028 14.0781 22.7528 13.9746 22.7528 13.9746Z" fill="#EBA352"/>
</svg>
